<?xml version="1.0" encoding="UTF-8" standalone="no"?><!DOCTYPE svg PUBLIC "-//W3C//DTD SVG 1.1//EN" "http://www.w3.org/Graphics/SVG/1.1/DTD/svg11.dtd"><!-- Generated by graphviz version 2.40.1 (20161225.0304)
 --><!-- Title: Taxonomy Pages: 1 --><svg xmlns="http://www.w3.org/2000/svg" xmlns:xlink="http://www.w3.org/1999/xlink" width="1151pt" height="738pt" viewBox="0.00 0.00 1150.93 738.40">
<g id="graph0" class="graph" transform="scale(1 1) rotate(0) translate(4 734.4)">
<title>Taxonomy</title>
<polygon fill="#ffffff" stroke="transparent" points="-4,4 -4,-734.4 1146.9327,-734.4 1146.9327,4 -4,4"/>
<!-- start -->
<g id="node1" class="node">
<title>start</title>
<polygon fill="#d3d3d3" stroke="#000000" stroke-width="2" points="713.1369,-730.4 623.3779,-730.4 623.3779,-694.4 713.1369,-694.4 713.1369,-730.4"/>
<text text-anchor="middle" x="668.2574" y="-708.2" font-family="Times,serif" font-size="14.00" fill="#000000">Optimization</text>
</g>
<!-- Convex -->
<g id="node2" class="node">
<title>Convex</title>
<g id="a_node2"><a xlink:href="/guide/types/#convex" xlink:title="Convex\nOptimization" target="_parent">
<polygon fill="#ffffff" stroke="#0079e2" stroke-width="2" points="568.1369,-649.8019 478.3779,-649.8019 478.3779,-608.5981 568.1369,-608.5981 568.1369,-649.8019"/>
<text text-anchor="middle" x="523.2574" y="-633.4" font-family="Times,serif" font-size="14.00" fill="#000000">Convex</text>
<text text-anchor="middle" x="523.2574" y="-616.6" font-family="Times,serif" font-size="14.00" fill="#000000">Optimization</text>
</a>
</g>
</g>
<!-- start&#45;&gt;Convex -->
<g id="edge1" class="edge">
<title>start-&gt;Convex</title>
<path fill="none" stroke="#000000" stroke-width="2" d="M636.7946,-694.3468C615.3988,-682.0701 586.8933,-665.7139 563.7977,-652.4617"/>
<polygon fill="#000000" stroke="#000000" stroke-width="2" points="564.4621,-650.8254 559.2544,-649.8548 562.7202,-653.8612 564.4621,-650.8254"/>
</g>
<!-- Uncertainty -->
<g id="node17" class="node">
<title>Uncertainty</title>
<g id="a_node17"><a xlink:href="/guide/types/#uncertainty" xlink:title="Optimization\nUnder\nUncertainty" target="_parent">
<polygon fill="#ffffff" stroke="#ffe500" stroke-width="2" points="713.1369,-658.6014 623.3779,-658.6014 623.3779,-599.7986 713.1369,-599.7986 713.1369,-658.6014"/>
<text text-anchor="middle" x="668.2574" y="-641.8" font-family="Times,serif" font-size="14.00" fill="#000000">Optimization</text>
<text text-anchor="middle" x="668.2574" y="-625" font-family="Times,serif" font-size="14.00" fill="#000000">Under</text>
<text text-anchor="middle" x="668.2574" y="-608.2" font-family="Times,serif" font-size="14.00" fill="#000000">Uncertainty</text>
</a>
</g>
</g>
<!-- start&#45;&gt;Uncertainty -->
<g id="edge22" class="edge">
<title>start-&gt;Uncertainty</title>
<path fill="none" stroke="#000000" stroke-width="2" d="M668.2574,-694.3468C668.2574,-685.3932 668.2574,-674.2696 668.2574,-663.7629"/>
<polygon fill="#000000" stroke="#000000" stroke-width="2" points="670.0075,-663.6667 668.2574,-658.6668 666.5075,-663.6668 670.0075,-663.6667"/>
</g>
<!-- Nonconvex -->
<g id="node20" class="node">
<title>Nonconvex</title>
<g id="a_node20"><a xlink:href="/guide/types/#nonconvex" xlink:title="Nonconvex\nOptimization" target="_parent">
<polygon fill="#ffffff" stroke="#f90031" stroke-width="2" points="859.1369,-649.8019 769.3779,-649.8019 769.3779,-608.5981 859.1369,-608.5981 859.1369,-649.8019"/>
<text text-anchor="middle" x="814.2574" y="-633.4" font-family="Times,serif" font-size="14.00" fill="#000000">Nonconvex</text>
<text text-anchor="middle" x="814.2574" y="-616.6" font-family="Times,serif" font-size="14.00" fill="#000000">Optimization</text>
</a>
</g>
</g>
<!-- start&#45;&gt;Nonconvex -->
<g id="edge25" class="edge">
<title>start-&gt;Nonconvex</title>
<path fill="none" stroke="#000000" stroke-width="2" d="M699.9372,-694.3468C721.4805,-682.0701 750.1826,-665.7139 773.4376,-652.4617"/>
<polygon fill="#000000" stroke="#000000" stroke-width="2" points="774.5345,-653.8509 778.0122,-649.8548 772.8016,-650.81 774.5345,-653.8509"/>
</g>
<!-- Constrain -->
<g id="node3" class="node">
<title>Constrain</title>
<g id="a_node3"><a xlink:href="/guide/types/#constrained" xlink:title="Constrained" target="_parent">
<polygon fill="#ffffff" stroke="#0079e2" stroke-width="2" points="366.9103,-561.2 283.6045,-561.2 283.6045,-525.2 366.9103,-525.2 366.9103,-561.2"/>
<text text-anchor="middle" x="325.2574" y="-539" font-family="Times,serif" font-size="14.00" fill="#000000">Constrained</text>
</a>
</g>
</g>
<!-- Convex&#45;&gt;Constrain -->
<g id="edge2" class="edge">
<title>Convex-&gt;Constrain</title>
<path fill="none" stroke="#000000" stroke-width="2" d="M478.3281,-609.6853C446.4644,-595.8455 403.8208,-577.3235 371.6366,-563.3445"/>
<polygon fill="#000000" stroke="#000000" stroke-width="2" points="372.2498,-561.7029 366.9665,-561.3161 370.8554,-564.9132 372.2498,-561.7029"/>
</g>
<!-- Unconstrained -->
<g id="node4" class="node">
<title>Unconstrained</title>
<g id="a_node4"><a xlink:href="/guide/types/#unconstrained" xlink:title="Unconstrained" target="_parent">
<polygon fill="#ffffff" stroke="#0079e2" stroke-width="2" points="577.8949,-364 480.6199,-364 480.6199,-328 577.8949,-328 577.8949,-364"/>
<text text-anchor="middle" x="529.2574" y="-341.8" font-family="Times,serif" font-size="14.00" fill="#000000">Unconstrained</text>
</a>
</g>
</g>
<!-- Convex&#45;&gt;Unconstrained -->
<g id="edge3" class="edge">
<title>Convex-&gt;Unconstrained</title>
<path fill="none" stroke="#000000" stroke-width="2" d="M523.6986,-608.3756C524.7897,-556.8777 527.609,-423.8028 528.7585,-369.5496"/>
<polygon fill="#000000" stroke="#000000" stroke-width="2" points="530.5145,-369.2813 528.8708,-364.2453 527.0152,-369.2071 530.5145,-369.2813"/>
</g>
<!-- NC -->
<g id="node7" class="node">
<title>NC</title>
<g id="a_node7"><a xlink:href="/guide/types/nonlin/" xlink:title="Nonlinear\nConstrained\nOptimization" target="_parent">
<polygon fill="#c6e4ff" stroke="#0079e2" stroke-width="2" points="160.1369,-486.6014 76.3779,-486.6014 76.3779,-427.7986 166.1369,-427.7986 166.1369,-480.6014 160.1369,-486.6014"/>
<polyline fill="none" stroke="#0079e2" stroke-width="2" points="160.1369,-486.6014 160.1369,-480.6014 "/>
<polyline fill="none" stroke="#0079e2" stroke-width="2" points="166.1369,-480.6014 160.1369,-480.6014 "/>
<text text-anchor="middle" x="121.2574" y="-469.8" font-family="Times,serif" font-size="14.00" fill="#000000">Nonlinear</text>
<text text-anchor="middle" x="121.2574" y="-453" font-family="Times,serif" font-size="14.00" fill="#000000">Constrained</text>
<text text-anchor="middle" x="121.2574" y="-436.2" font-family="Times,serif" font-size="14.00" fill="#000000">Optimization</text>
</a>
</g>
</g>
<!-- Constrain&#45;&gt;NC -->
<g id="edge6" class="edge">
<title>Constrain-&gt;NC</title>
<path fill="none" stroke="#000000" stroke-width="2" d="M283.4827,-525.5891C250.9292,-511.8656 205.6248,-492.7666 171.164,-478.2391"/>
<polygon fill="#000000" stroke="#000000" stroke-width="2" points="171.4483,-476.4598 166.1612,-476.13 170.0887,-479.6849 171.4483,-476.4598"/>
</g>
<!-- LCO -->
<g id="node8" class="node">
<title>LCO</title>
<polygon fill="#ffffff" stroke="#0079e2" stroke-width="2" points="370.1369,-486.6014 280.3779,-486.6014 280.3779,-427.7986 370.1369,-427.7986 370.1369,-486.6014"/>
<text text-anchor="middle" x="325.2574" y="-469.8" font-family="Times,serif" font-size="14.00" fill="#000000">Linearly-</text>
<text text-anchor="middle" x="325.2574" y="-453" font-family="Times,serif" font-size="14.00" fill="#000000">Constrained</text>
<text text-anchor="middle" x="325.2574" y="-436.2" font-family="Times,serif" font-size="14.00" fill="#000000">Optimization</text>
</g>
<!-- Constrain&#45;&gt;LCO -->
<g id="edge7" class="edge">
<title>Constrain-&gt;LCO</title>
<path fill="none" stroke="#000000" stroke-width="2" d="M325.2574,-524.9616C325.2574,-515.2985 325.2574,-503.1045 325.2574,-491.7331"/>
<polygon fill="#000000" stroke="#000000" stroke-width="2" points="327.0075,-491.5783 325.2574,-486.5783 323.5075,-491.5784 327.0075,-491.5783"/>
</g>
<!-- NSO -->
<g id="node5" class="node">
<title>NSO</title>
<g id="a_node5"><a xlink:href="/guide/types/smooth/" xlink:title="Nonsmooth\nOptimization" target="_parent">
<polygon fill="#c6e4ff" stroke="#0079e2" stroke-width="2" points="567.1369,-247.0019 483.3779,-247.0019 483.3779,-205.7981 573.1369,-205.7981 573.1369,-241.0019 567.1369,-247.0019"/>
<polyline fill="none" stroke="#0079e2" stroke-width="2" points="567.1369,-247.0019 567.1369,-241.0019 "/>
<polyline fill="none" stroke="#0079e2" stroke-width="2" points="573.1369,-241.0019 567.1369,-241.0019 "/>
<text text-anchor="middle" x="528.2574" y="-230.6" font-family="Times,serif" font-size="14.00" fill="#000000">Nonsmooth</text>
<text text-anchor="middle" x="528.2574" y="-213.8" font-family="Times,serif" font-size="14.00" fill="#000000">Optimization</text>
</a>
</g>
</g>
<!-- Unconstrained&#45;&gt;NSO -->
<g id="edge4" class="edge">
<title>Unconstrained-&gt;NSO</title>
<path fill="none" stroke="#000000" stroke-width="2" d="M529.1055,-327.8353C528.9376,-307.7503 528.6656,-275.2252 528.4751,-252.434"/>
<polygon fill="#000000" stroke="#000000" stroke-width="2" points="530.2227,-252.1368 528.4309,-247.1516 526.7229,-252.1661 530.2227,-252.1368"/>
</g>
<!-- SO -->
<g id="node6" class="node">
<title>SO</title>
<g id="a_node6"><a xlink:href="/guide/types/nonsmooth/" xlink:title="Smooth\nOptimization" target="_parent">
<polygon fill="#c6e4ff" stroke="#0079e2" stroke-width="2" points="457.1369,-247.0019 373.3779,-247.0019 373.3779,-205.7981 463.1369,-205.7981 463.1369,-241.0019 457.1369,-247.0019"/>
<polyline fill="none" stroke="#0079e2" stroke-width="2" points="457.1369,-247.0019 457.1369,-241.0019 "/>
<polyline fill="none" stroke="#0079e2" stroke-width="2" points="463.1369,-241.0019 457.1369,-241.0019 "/>
<text text-anchor="middle" x="418.2574" y="-230.6" font-family="Times,serif" font-size="14.00" fill="#000000">Smooth</text>
<text text-anchor="middle" x="418.2574" y="-213.8" font-family="Times,serif" font-size="14.00" fill="#000000">Optimization</text>
</a>
</g>
</g>
<!-- Unconstrained&#45;&gt;SO -->
<g id="edge5" class="edge">
<title>Unconstrained-&gt;SO</title>
<path fill="none" stroke="#000000" stroke-width="2" d="M512.3989,-327.8353C493.3648,-307.3265 462.2929,-273.8473 441.0928,-251.0047"/>
<polygon fill="#000000" stroke="#000000" stroke-width="2" points="442.2009,-249.626 437.5168,-247.1516 439.6355,-252.007 442.2009,-249.626"/>
</g>
<!-- QCQP -->
<g id="node13" class="node">
<title>QCQP</title>
<g id="a_node13"><a xlink:href="/guide/types/qcqp" xlink:title="Quadratically\nConstrained\nQuadratic\nProgramming" target="_parent">
<polygon fill="#c6e4ff" stroke="#0079e2" stroke-width="2" points="124.7476,-383.7003 37.7672,-383.7003 37.7672,-308.2997 130.7476,-308.2997 130.7476,-377.7003 124.7476,-383.7003"/>
<polyline fill="none" stroke="#0079e2" stroke-width="2" points="124.7476,-383.7003 124.7476,-377.7003 "/>
<polyline fill="none" stroke="#0079e2" stroke-width="2" points="130.7476,-377.7003 124.7476,-377.7003 "/>
<text text-anchor="middle" x="84.2574" y="-367" font-family="Times,serif" font-size="14.00" fill="#000000">Quadratically</text>
<text text-anchor="middle" x="84.2574" y="-350.2" font-family="Times,serif" font-size="14.00" fill="#000000">Constrained</text>
<text text-anchor="middle" x="84.2574" y="-333.4" font-family="Times,serif" font-size="14.00" fill="#000000">Quadratic</text>
<text text-anchor="middle" x="84.2574" y="-316.6" font-family="Times,serif" font-size="14.00" fill="#000000">Programming</text>
</a>
</g>
</g>
<!-- NC&#45;&gt;QCQP -->
<g id="edge16" class="edge">
<title>NC-&gt;QCQP</title>
<path fill="none" stroke="#000000" stroke-width="2" d="M111.5361,-427.9835C107.5315,-415.9483 102.8126,-401.7659 98.4356,-388.6111"/>
<polygon fill="#000000" stroke="#000000" stroke-width="2" points="100.0795,-388.0087 96.8404,-383.817 96.7585,-389.1138 100.0795,-388.0087"/>
</g>
<!-- SIP -->
<g id="node14" class="node">
<title>SIP</title>
<g id="a_node14"><a xlink:href="/guide/types/semi-infinite/" xlink:title="Semi\nInfinite\nProgramming" target="_parent">
<polygon fill="#c6e4ff" stroke="#0079e2" stroke-width="2" points="124.7476,-255.8014 37.7672,-255.8014 37.7672,-196.9986 130.7476,-196.9986 130.7476,-249.8014 124.7476,-255.8014"/>
<polyline fill="none" stroke="#0079e2" stroke-width="2" points="124.7476,-255.8014 124.7476,-249.8014 "/>
<polyline fill="none" stroke="#0079e2" stroke-width="2" points="130.7476,-249.8014 124.7476,-249.8014 "/>
<text text-anchor="middle" x="84.2574" y="-239" font-family="Times,serif" font-size="14.00" fill="#000000">Semi</text>
<text text-anchor="middle" x="84.2574" y="-222.2" font-family="Times,serif" font-size="14.00" fill="#000000">Infinite</text>
<text text-anchor="middle" x="84.2574" y="-205.4" font-family="Times,serif" font-size="14.00" fill="#000000">Programming</text>
</a>
</g>
</g>
<!-- NC&#45;&gt;SIP -->
<g id="edge17" class="edge">
<title>NC-&gt;SIP</title>
<path fill="none" stroke="#000000" stroke-width="2" d="M131.9744,-427.7431C142.0133,-395.5626 153.5098,-342.8817 139.2574,-300 134.4209,-285.4482 125.461,-271.4466 116.1565,-259.6342"/>
<polygon fill="#000000" stroke="#000000" stroke-width="2" points="117.4953,-258.5065 112.9933,-255.7145 114.7715,-260.7045 117.4953,-258.5065"/>
</g>
<!-- SDP -->
<g id="node15" class="node">
<title>SDP</title>
<g id="a_node15"><a xlink:href="/guide/types/semidefinite/" xlink:title="Semi-\nDefinite\nProgramming" target="_parent">
<polygon fill="#c6e4ff" stroke="#0079e2" stroke-width="2" points="87.7476,-153.0014 .7672,-153.0014 .7672,-94.1986 93.7476,-94.1986 93.7476,-147.0014 87.7476,-153.0014"/>
<polyline fill="none" stroke="#0079e2" stroke-width="2" points="87.7476,-153.0014 87.7476,-147.0014 "/>
<polyline fill="none" stroke="#0079e2" stroke-width="2" points="93.7476,-147.0014 87.7476,-147.0014 "/>
<text text-anchor="middle" x="47.2574" y="-136.2" font-family="Times,serif" font-size="14.00" fill="#000000">Semi-</text>
<text text-anchor="middle" x="47.2574" y="-119.4" font-family="Times,serif" font-size="14.00" fill="#000000">Definite</text>
<text text-anchor="middle" x="47.2574" y="-102.6" font-family="Times,serif" font-size="14.00" fill="#000000">Programming</text>
</a>
</g>
</g>
<!-- NC&#45;&gt;SDP -->
<g id="edge19" class="edge">
<title>NC-&gt;SDP</title>
<path fill="none" stroke="#000000" stroke-width="2" d="M76.235,-437.0073C58.1944,-426.3913 39.3264,-411.477 29.2574,-392 -10.0106,-316.0416 16.0986,-211.4422 34.1547,-158.0251"/>
<polygon fill="#000000" stroke="#000000" stroke-width="2" points="35.9052,-158.3155 35.8745,-153.0182 32.5951,-157.1785 35.9052,-158.3155"/>
</g>
<!-- BCO -->
<g id="node9" class="node">
<title>BCO</title>
<g id="a_node9"><a xlink:href="/guide/types/bound" xlink:title="Bound-\nConstrained\nOptimization" target="_parent">
<polygon fill="#c6e4ff" stroke="#0079e2" stroke-width="2" points="456.1369,-375.4014 372.3779,-375.4014 372.3779,-316.5986 462.1369,-316.5986 462.1369,-369.4014 456.1369,-375.4014"/>
<polyline fill="none" stroke="#0079e2" stroke-width="2" points="456.1369,-375.4014 456.1369,-369.4014 "/>
<polyline fill="none" stroke="#0079e2" stroke-width="2" points="462.1369,-369.4014 456.1369,-369.4014 "/>
<text text-anchor="middle" x="417.2574" y="-358.6" font-family="Times,serif" font-size="14.00" fill="#000000">Bound-</text>
<text text-anchor="middle" x="417.2574" y="-341.8" font-family="Times,serif" font-size="14.00" fill="#000000">Constrained</text>
<text text-anchor="middle" x="417.2574" y="-325" font-family="Times,serif" font-size="14.00" fill="#000000">Optimization</text>
</a>
</g>
</g>
<!-- LCO&#45;&gt;BCO -->
<g id="edge8" class="edge">
<title>LCO-&gt;BCO</title>
<path fill="none" stroke="#000000" stroke-width="2" d="M349.4293,-427.9835C361.7972,-413.0345 376.9058,-394.7728 389.7217,-379.2823"/>
<polygon fill="#000000" stroke="#000000" stroke-width="2" points="391.0886,-380.3755 392.9275,-375.4074 388.3918,-378.1444 391.0886,-380.3755"/>
</g>
<!-- LP -->
<g id="node10" class="node">
<title>LP</title>
<g id="a_node10"><a xlink:href="/guide/types/lp/" xlink:title="Linear\nProgramming" target="_parent">
<polygon fill="#c6e4ff" stroke="#0079e2" stroke-width="2" points="272.7476,-366.6019 185.7672,-366.6019 185.7672,-325.3981 278.7476,-325.3981 278.7476,-360.6019 272.7476,-366.6019"/>
<polyline fill="none" stroke="#0079e2" stroke-width="2" points="272.7476,-366.6019 272.7476,-360.6019 "/>
<polyline fill="none" stroke="#0079e2" stroke-width="2" points="278.7476,-360.6019 272.7476,-360.6019 "/>
<text text-anchor="middle" x="232.2574" y="-350.2" font-family="Times,serif" font-size="14.00" fill="#000000">Linear</text>
<text text-anchor="middle" x="232.2574" y="-333.4" font-family="Times,serif" font-size="14.00" fill="#000000">Programming</text>
</a>
</g>
</g>
<!-- LCO&#45;&gt;LP -->
<g id="edge11" class="edge">
<title>LCO-&gt;LP</title>
<path fill="none" stroke="#000000" stroke-width="2" d="M300.8227,-427.9835C286.0382,-410.3057 267.3795,-387.9955 253.2605,-371.1134"/>
<polygon fill="#000000" stroke="#000000" stroke-width="2" points="254.324,-369.6572 249.7739,-366.9444 251.6392,-371.9026 254.324,-369.6572"/>
</g>
<!-- NO -->
<g id="node11" class="node">
<title>NO</title>
<g id="a_node11"><a xlink:href="/guide/types/network/" xlink:title="Network\nOptimization" target="_parent">
<polygon fill="#c6e4ff" stroke="#0079e2" stroke-width="2" points="310.1369,-247.0019 226.3779,-247.0019 226.3779,-205.7981 316.1369,-205.7981 316.1369,-241.0019 310.1369,-247.0019"/>
<polyline fill="none" stroke="#0079e2" stroke-width="2" points="310.1369,-247.0019 310.1369,-241.0019 "/>
<polyline fill="none" stroke="#0079e2" stroke-width="2" points="316.1369,-241.0019 310.1369,-241.0019 "/>
<text text-anchor="middle" x="271.2574" y="-230.6" font-family="Times,serif" font-size="14.00" fill="#000000">Network</text>
<text text-anchor="middle" x="271.2574" y="-213.8" font-family="Times,serif" font-size="14.00" fill="#000000">Optimization</text>
</a>
</g>
</g>
<!-- LCO&#45;&gt;NO -->
<g id="edge12" class="edge">
<title>LCO-&gt;NO</title>
<path fill="none" stroke="#000000" stroke-width="2" d="M318.4183,-427.969C307.7824,-382.5104 287.4492,-295.605 277.3133,-252.2834"/>
<polygon fill="#000000" stroke="#000000" stroke-width="2" points="278.9722,-251.6918 276.1291,-247.222 275.5643,-252.4892 278.9722,-251.6918"/>
</g>
<!-- QP -->
<g id="node12" class="node">
<title>QP</title>
<g id="a_node12"><a xlink:href="/guide/types/qp/" xlink:title="Quadratic\nProgramming" target="_parent">
<polygon fill="#c6e4ff" stroke="#0079e2" stroke-width="2" points="347.7476,-144.2019 260.7672,-144.2019 260.7672,-102.9981 353.7476,-102.9981 353.7476,-138.2019 347.7476,-144.2019"/>
<polyline fill="none" stroke="#0079e2" stroke-width="2" points="347.7476,-144.2019 347.7476,-138.2019 "/>
<polyline fill="none" stroke="#0079e2" stroke-width="2" points="353.7476,-138.2019 347.7476,-138.2019 "/>
<text text-anchor="middle" x="307.2574" y="-127.8" font-family="Times,serif" font-size="14.00" fill="#000000">Quadratic</text>
<text text-anchor="middle" x="307.2574" y="-111" font-family="Times,serif" font-size="14.00" fill="#000000">Programming</text>
</a>
</g>
</g>
<!-- LCO&#45;&gt;QP -->
<g id="edge14" class="edge">
<title>LCO-&gt;QP</title>
<path fill="none" stroke="#000000" stroke-width="2" d="M327.8376,-427.6362C331.5933,-378.008 336.9264,-274.9168 325.2574,-188.8 323.4638,-175.5634 319.7103,-161.2171 316.0927,-149.3606"/>
<polygon fill="#000000" stroke="#000000" stroke-width="2" points="317.7177,-148.6932 314.5568,-144.4421 314.3769,-149.7365 317.7177,-148.6932"/>
</g>
<!-- BCO&#45;&gt;NSO -->
<g id="edge9" class="edge">
<title>BCO-&gt;NSO</title>
<path fill="none" stroke="#000000" stroke-width="2" d="M444.4111,-316.7425C463.1844,-296.5147 487.8728,-269.9135 505.5907,-250.8229"/>
<polygon fill="#000000" stroke="#000000" stroke-width="2" points="506.9189,-251.9643 509.0375,-247.109 504.3535,-249.5834 506.9189,-251.9643"/>
</g>
<!-- BCO&#45;&gt;SO -->
<g id="edge10" class="edge">
<title>BCO-&gt;SO</title>
<path fill="none" stroke="#000000" stroke-width="2" d="M417.502,-316.7425C417.6669,-297.0204 417.8825,-271.2396 418.0411,-252.2685"/>
<polygon fill="#000000" stroke="#000000" stroke-width="2" points="419.7923,-252.1235 418.0842,-247.109 416.2924,-252.0941 419.7923,-252.1235"/>
</g>
<!-- LP&#45;&gt;NO -->
<!-- NO&#45;&gt;QP -->
<!-- QCQP&#45;&gt;SIP -->
<!-- SIP&#45;&gt;SDP -->
<!-- SOCP -->
<g id="node16" class="node">
<title>SOCP</title>
<g id="a_node16"><a xlink:href="/guide/types/socp/" xlink:title="Second-Order\nCone\nProgramming" target="_parent">
<polygon fill="#c6e4ff" stroke="#0079e2" stroke-width="2" points="88.2734,-58.6014 .2414,-58.6014 .2414,.2014 94.2734,.2014 94.2734,-52.6014 88.2734,-58.6014"/>
<polyline fill="none" stroke="#0079e2" stroke-width="2" points="88.2734,-58.6014 88.2734,-52.6014 "/>
<polyline fill="none" stroke="#0079e2" stroke-width="2" points="94.2734,-52.6014 88.2734,-52.6014 "/>
<text text-anchor="middle" x="47.2574" y="-41.8" font-family="Times,serif" font-size="14.00" fill="#000000">Second-Order</text>
<text text-anchor="middle" x="47.2574" y="-25" font-family="Times,serif" font-size="14.00" fill="#000000">Cone</text>
<text text-anchor="middle" x="47.2574" y="-8.2" font-family="Times,serif" font-size="14.00" fill="#000000">Programming</text>
</a>
</g>
</g>
<!-- SDP&#45;&gt;SOCP -->
<g id="edge21" class="edge">
<title>SDP-&gt;SOCP</title>
<path fill="none" stroke="#000000" stroke-width="2" d="M47.2574,-94.2487C47.2574,-84.5699 47.2574,-73.7167 47.2574,-63.6903"/>
<polygon fill="#000000" stroke="#000000" stroke-width="2" points="49.0075,-63.5331 47.2574,-58.5331 45.5075,-63.5332 49.0075,-63.5331"/>
</g>
<!-- RO -->
<g id="node18" class="node">
<title>RO</title>
<g id="a_node18"><a xlink:href="/guide/types/robust/" xlink:title="Robust\nOptimization" target="_parent">
<polygon fill="#fef9cc" stroke="#ffe500" stroke-width="2" points="635.1369,-563.8019 551.3779,-563.8019 551.3779,-522.5981 641.1369,-522.5981 641.1369,-557.8019 635.1369,-563.8019"/>
<polyline fill="none" stroke="#ffe500" stroke-width="2" points="635.1369,-563.8019 635.1369,-557.8019 "/>
<polyline fill="none" stroke="#ffe500" stroke-width="2" points="641.1369,-557.8019 635.1369,-557.8019 "/>
<text text-anchor="middle" x="596.2574" y="-547.4" font-family="Times,serif" font-size="14.00" fill="#000000">Robust</text>
<text text-anchor="middle" x="596.2574" y="-530.6" font-family="Times,serif" font-size="14.00" fill="#000000">Optimization</text>
</a>
</g>
</g>
<!-- Uncertainty&#45;&gt;RO -->
<g id="edge23" class="edge">
<title>Uncertainty-&gt;RO</title>
<path fill="none" stroke="#000000" stroke-width="2" d="M643.4791,-599.6037C634.7887,-589.2234 625.1288,-577.6853 616.8217,-567.7629"/>
<polygon fill="#000000" stroke="#000000" stroke-width="2" points="618.1421,-566.6139 613.5905,-563.9034 615.4584,-568.8607 618.1421,-566.6139"/>
</g>
<!-- SP -->
<g id="node19" class="node">
<title>SP</title>
<g id="a_node19"><a xlink:href="/guide/types/stochastic/" xlink:title="Stochastic\nProgramming" target="_parent">
<polygon fill="#fef9cc" stroke="#ffe500" stroke-width="2" points="745.7476,-563.8019 658.7672,-563.8019 658.7672,-522.5981 751.7476,-522.5981 751.7476,-557.8019 745.7476,-563.8019"/>
<polyline fill="none" stroke="#ffe500" stroke-width="2" points="745.7476,-563.8019 745.7476,-557.8019 "/>
<polyline fill="none" stroke="#ffe500" stroke-width="2" points="751.7476,-557.8019 745.7476,-557.8019 "/>
<text text-anchor="middle" x="705.2574" y="-547.4" font-family="Times,serif" font-size="14.00" fill="#000000">Stochastic</text>
<text text-anchor="middle" x="705.2574" y="-530.6" font-family="Times,serif" font-size="14.00" fill="#000000">Programming</text>
</a>
</g>
</g>
<!-- Uncertainty&#45;&gt;SP -->
<g id="edge24" class="edge">
<title>Uncertainty-&gt;SP</title>
<path fill="none" stroke="#000000" stroke-width="2" d="M680.9907,-599.6037C685.3381,-589.499 690.1575,-578.2972 694.3482,-568.5566"/>
<polygon fill="#000000" stroke="#000000" stroke-width="2" points="695.9815,-569.1881 696.3501,-563.9034 692.7665,-567.8048 695.9815,-569.1881"/>
</g>
<!-- Continuous -->
<g id="node21" class="node">
<title>Continuous</title>
<g id="a_node21"><a xlink:href="/guide/types/#continuous" xlink:title="Continuous\nOptimization" target="_parent">
<polygon fill="#ffffff" stroke="#f90031" stroke-width="2" points="859.1369,-563.8019 769.3779,-563.8019 769.3779,-522.5981 859.1369,-522.5981 859.1369,-563.8019"/>
<text text-anchor="middle" x="814.2574" y="-547.4" font-family="Times,serif" font-size="14.00" fill="#000000">Continuous</text>
<text text-anchor="middle" x="814.2574" y="-530.6" font-family="Times,serif" font-size="14.00" fill="#000000">Optimization</text>
</a>
</g>
</g>
<!-- Nonconvex&#45;&gt;Continuous -->
<g id="edge26" class="edge">
<title>Nonconvex-&gt;Continuous</title>
<path fill="none" stroke="#000000" stroke-width="2" d="M814.2574,-608.3818C814.2574,-596.5506 814.2574,-581.6343 814.2574,-569.0575"/>
<polygon fill="#000000" stroke="#000000" stroke-width="2" points="816.0075,-568.8265 814.2574,-563.8265 812.5075,-568.8265 816.0075,-568.8265"/>
</g>
<!-- Discrete -->
<g id="node30" class="node">
<title>Discrete</title>
<g id="a_node30"><a xlink:href="/guide/types/#discrete" xlink:title="Discrete\nOptimization" target="_parent">
<polygon fill="#ffffff" stroke="#f90031" stroke-width="2" points="1046.1369,-563.8019 956.3779,-563.8019 956.3779,-522.5981 1046.1369,-522.5981 1046.1369,-563.8019"/>
<text text-anchor="middle" x="1001.2574" y="-547.4" font-family="Times,serif" font-size="14.00" fill="#000000">Discrete</text>
<text text-anchor="middle" x="1001.2574" y="-530.6" font-family="Times,serif" font-size="14.00" fill="#000000">Optimization</text>
</a>
</g>
</g>
<!-- Nonconvex&#45;&gt;Discrete -->
<g id="edge35" class="edge">
<title>Nonconvex-&gt;Discrete</title>
<path fill="none" stroke="#000000" stroke-width="2" d="M859.5249,-608.3818C887.3181,-595.5999 922.9412,-579.2171 951.5204,-566.0737"/>
<polygon fill="#000000" stroke="#000000" stroke-width="2" points="952.5954,-567.5056 956.4068,-563.8265 951.1329,-564.3257 952.5954,-567.5056"/>
</g>
<!-- ConstrainOpt -->
<g id="node22" class="node">
<title>ConstrainOpt</title>
<g id="a_node22"><a xlink:href="/guide/types/#constrained" xlink:title="Constrained\nOptimization" target="_parent">
<polygon fill="#ffffff" stroke="#f90031" stroke-width="2" points="859.1369,-477.8019 769.3779,-477.8019 769.3779,-436.5981 859.1369,-436.5981 859.1369,-477.8019"/>
<text text-anchor="middle" x="814.2574" y="-461.4" font-family="Times,serif" font-size="14.00" fill="#000000">Constrained</text>
<text text-anchor="middle" x="814.2574" y="-444.6" font-family="Times,serif" font-size="14.00" fill="#000000">Optimization</text>
</a>
</g>
</g>
<!-- Continuous&#45;&gt;ConstrainOpt -->
<g id="edge27" class="edge">
<title>Continuous-&gt;ConstrainOpt</title>
<path fill="none" stroke="#000000" stroke-width="2" d="M814.2574,-522.3818C814.2574,-510.5506 814.2574,-495.6343 814.2574,-483.0575"/>
<polygon fill="#000000" stroke="#000000" stroke-width="2" points="816.0075,-482.8265 814.2574,-477.8265 812.5075,-482.8265 816.0075,-482.8265"/>
</g>
<!-- UnconstrainOpt -->
<g id="node28" class="node">
<title>UnconstrainOpt</title>
<g id="a_node28"><a xlink:href="/guide/types/#unconstrained" xlink:title="Unconstrained\nOptimization" target="_parent">
<polygon fill="#ffffff" stroke="#f90031" stroke-width="2" points="718.8949,-477.8019 621.6199,-477.8019 621.6199,-436.5981 718.8949,-436.5981 718.8949,-477.8019"/>
<text text-anchor="middle" x="670.2574" y="-461.4" font-family="Times,serif" font-size="14.00" fill="#000000">Unconstrained</text>
<text text-anchor="middle" x="670.2574" y="-444.6" font-family="Times,serif" font-size="14.00" fill="#000000">Optimization</text>
</a>
</g>
</g>
<!-- Continuous&#45;&gt;UnconstrainOpt -->
<g id="edge33" class="edge">
<title>Continuous-&gt;UnconstrainOpt</title>
<path fill="none" stroke="#000000" stroke-width="2" d="M779.399,-522.3818C758.1737,-509.7055 731.0181,-493.4876 709.1043,-480.4002"/>
<polygon fill="#000000" stroke="#000000" stroke-width="2" points="709.9848,-478.8878 704.7948,-477.8265 708.1902,-481.8927 709.9848,-478.8878"/>
</g>
<!-- NLO -->
<g id="node23" class="node">
<title>NLO</title>
<g id="a_node23"><a xlink:href="/guide/types/nonlin/" xlink:title="Nonlinear\nOptimization" target="_parent">
<polygon fill="#ffcad5" stroke="#f90031" stroke-width="2" points="802.1369,-366.6019 718.3779,-366.6019 718.3779,-325.3981 808.1369,-325.3981 808.1369,-360.6019 802.1369,-366.6019"/>
<polyline fill="none" stroke="#f90031" stroke-width="2" points="802.1369,-366.6019 802.1369,-360.6019 "/>
<polyline fill="none" stroke="#f90031" stroke-width="2" points="808.1369,-360.6019 802.1369,-360.6019 "/>
<text text-anchor="middle" x="763.2574" y="-350.2" font-family="Times,serif" font-size="14.00" fill="#000000">Nonlinear</text>
<text text-anchor="middle" x="763.2574" y="-333.4" font-family="Times,serif" font-size="14.00" fill="#000000">Optimization</text>
</a>
</g>
</g>
<!-- ConstrainOpt&#45;&gt;NLO -->
<g id="edge28" class="edge">
<title>ConstrainOpt-&gt;NLO</title>
<path fill="none" stroke="#000000" stroke-width="2" d="M804.7842,-436.5447C796.3926,-418.2477 784.1068,-391.4598 775.0747,-371.7664"/>
<polygon fill="#000000" stroke="#000000" stroke-width="2" points="776.5281,-370.7372 772.8529,-366.922 773.3467,-372.1964 776.5281,-370.7372"/>
</g>
<!-- MPEC -->
<g id="node26" class="node">
<title>MPEC</title>
<g id="a_node26"><a xlink:href="/guide/types/mpec/" xlink:title="Mathematical\nProgramming\nwith\nEquilibrium\nConstraints" target="_parent">
<polygon fill="#ffcad5" stroke="#f90031" stroke-width="2" points="915.7476,-392 828.7672,-392 828.7672,-300 921.7476,-300 921.7476,-386 915.7476,-392"/>
<polyline fill="none" stroke="#f90031" stroke-width="2" points="915.7476,-392 915.7476,-386 "/>
<polyline fill="none" stroke="#f90031" stroke-width="2" points="921.7476,-386 915.7476,-386 "/>
<text text-anchor="middle" x="875.2574" y="-375.4" font-family="Times,serif" font-size="14.00" fill="#000000">Mathematical</text>
<text text-anchor="middle" x="875.2574" y="-358.6" font-family="Times,serif" font-size="14.00" fill="#000000">Programming</text>
<text text-anchor="middle" x="875.2574" y="-341.8" font-family="Times,serif" font-size="14.00" fill="#000000">with</text>
<text text-anchor="middle" x="875.2574" y="-325" font-family="Times,serif" font-size="14.00" fill="#000000">Equilibrium</text>
<text text-anchor="middle" x="875.2574" y="-308.2" font-family="Times,serif" font-size="14.00" fill="#000000">Constraints</text>
</a>
</g>
</g>
<!-- ConstrainOpt&#45;&gt;MPEC -->
<g id="edge31" class="edge">
<title>ConstrainOpt-&gt;MPEC</title>
<path fill="none" stroke="#000000" stroke-width="2" d="M825.5881,-436.5447C831.7172,-425.3716 839.5832,-411.0323 847.2393,-397.0757"/>
<polygon fill="#000000" stroke="#000000" stroke-width="2" points="848.9543,-397.5878 849.8248,-392.3624 845.8857,-395.9045 848.9543,-397.5878"/>
</g>
<!-- CoBCO -->
<g id="node24" class="node">
<title>CoBCO</title>
<g id="a_node24"><a xlink:href="/guide/types/bound/" xlink:title="Bound-\nConstrained\nOptimization" target="_parent">
<polygon fill="#ffcad5" stroke="#f90031" stroke-width="2" points="797.1369,-255.8014 713.3779,-255.8014 713.3779,-196.9986 803.1369,-196.9986 803.1369,-249.8014 797.1369,-255.8014"/>
<polyline fill="none" stroke="#f90031" stroke-width="2" points="797.1369,-255.8014 797.1369,-249.8014 "/>
<polyline fill="none" stroke="#f90031" stroke-width="2" points="803.1369,-249.8014 797.1369,-249.8014 "/>
<text text-anchor="middle" x="758.2574" y="-239" font-family="Times,serif" font-size="14.00" fill="#000000">Bound-</text>
<text text-anchor="middle" x="758.2574" y="-222.2" font-family="Times,serif" font-size="14.00" fill="#000000">Constrained</text>
<text text-anchor="middle" x="758.2574" y="-205.4" font-family="Times,serif" font-size="14.00" fill="#000000">Optimization</text>
</a>
</g>
</g>
<!-- NLO&#45;&gt;CoBCO -->
<g id="edge29" class="edge">
<title>NLO-&gt;CoBCO</title>
<path fill="none" stroke="#000000" stroke-width="2" d="M762.3865,-325.1673C761.6488,-307.5218 760.5759,-281.8587 759.7087,-261.1145"/>
<polygon fill="#000000" stroke="#000000" stroke-width="2" points="761.4504,-260.877 759.493,-255.9545 757.9534,-261.0232 761.4504,-260.877"/>
</g>
<!-- CoQP -->
<g id="node25" class="node">
<title>CoQP</title>
<g id="a_node25"><a xlink:href="/guide/types/qp/" xlink:title="Quadratic\nProgramming" target="_parent">
<polygon fill="#ffcad5" stroke="#f90031" stroke-width="2" points="689.7476,-247.0019 602.7672,-247.0019 602.7672,-205.7981 695.7476,-205.7981 695.7476,-241.0019 689.7476,-247.0019"/>
<polyline fill="none" stroke="#f90031" stroke-width="2" points="689.7476,-247.0019 689.7476,-241.0019 "/>
<polyline fill="none" stroke="#f90031" stroke-width="2" points="695.7476,-241.0019 689.7476,-241.0019 "/>
<text text-anchor="middle" x="649.2574" y="-230.6" font-family="Times,serif" font-size="14.00" fill="#000000">Quadratic</text>
<text text-anchor="middle" x="649.2574" y="-213.8" font-family="Times,serif" font-size="14.00" fill="#000000">Programming</text>
</a>
</g>
</g>
<!-- NLO&#45;&gt;CoQP -->
<g id="edge30" class="edge">
<title>NLO-&gt;CoQP</title>
<path fill="none" stroke="#000000" stroke-width="2" d="M743.4001,-325.1673C723.7411,-304.5425 693.6413,-272.9642 672.7915,-251.0902"/>
<polygon fill="#000000" stroke="#000000" stroke-width="2" points="673.9862,-249.8071 669.2696,-247.3953 671.4527,-252.222 673.9862,-249.8071"/>
</g>
<!-- CoCP -->
<g id="node27" class="node">
<title>CoCP</title>
<g id="a_node27"><a xlink:href="/guide/types/complementarity-problems/ " xlink:title="Complementarity\nProblems" target="_parent">
<polygon fill="#ffcad5" stroke="#f90031" stroke-width="2" points="929.242,-247.0019 821.2728,-247.0019 821.2728,-205.7981 935.242,-205.7981 935.242,-241.0019 929.242,-247.0019"/>
<polyline fill="none" stroke="#f90031" stroke-width="2" points="929.242,-247.0019 929.242,-241.0019 "/>
<polyline fill="none" stroke="#f90031" stroke-width="2" points="935.242,-241.0019 929.242,-241.0019 "/>
<text text-anchor="middle" x="878.2574" y="-230.6" font-family="Times,serif" font-size="14.00" fill="#000000">Complementarity</text>
<text text-anchor="middle" x="878.2574" y="-213.8" font-family="Times,serif" font-size="14.00" fill="#000000">Problems</text>
</a>
</g>
</g>
<!-- MPEC&#45;&gt;CoCP -->
<g id="edge32" class="edge">
<title>MPEC-&gt;CoCP</title>
<path fill="none" stroke="#000000" stroke-width="2" d="M876.4173,-299.7595C876.819,-283.7432 877.2551,-266.357 877.6019,-252.5321"/>
<polygon fill="#000000" stroke="#000000" stroke-width="2" points="879.359,-252.2687 877.735,-247.2263 875.8601,-252.1808 879.359,-252.2687"/>
</g>
<!-- NLS -->
<g id="node29" class="node">
<title>NLS</title>
<g id="a_node29"><a xlink:href="/guide/types/least-squares/" xlink:title="Nonlinear\nLeast\nSquares" target="_parent">
<polygon fill="#ffcad5" stroke="#f90031" stroke-width="2" points="694.235,-375.4014 628.2798,-375.4014 628.2798,-316.5986 700.235,-316.5986 700.235,-369.4014 694.235,-375.4014"/>
<polyline fill="none" stroke="#f90031" stroke-width="2" points="694.235,-375.4014 694.235,-369.4014 "/>
<polyline fill="none" stroke="#f90031" stroke-width="2" points="700.235,-369.4014 694.235,-369.4014 "/>
<text text-anchor="middle" x="664.2574" y="-358.6" font-family="Times,serif" font-size="14.00" fill="#000000">Nonlinear</text>
<text text-anchor="middle" x="664.2574" y="-341.8" font-family="Times,serif" font-size="14.00" fill="#000000">Least</text>
<text text-anchor="middle" x="664.2574" y="-325" font-family="Times,serif" font-size="14.00" fill="#000000">Squares</text>
</a>
</g>
</g>
<!-- UnconstrainOpt&#45;&gt;NLS -->
<g id="edge34" class="edge">
<title>UnconstrainOpt-&gt;NLS</title>
<path fill="none" stroke="#000000" stroke-width="2" d="M669.1429,-436.5447C668.2941,-420.814 667.1067,-398.8073 666.1151,-380.4287"/>
<polygon fill="#000000" stroke="#000000" stroke-width="2" points="667.8579,-380.2479 665.841,-375.3494 664.363,-380.4365 667.8579,-380.2479"/>
</g>
<!-- Combinatorial -->
<g id="node31" class="node">
<title>Combinatorial</title>
<g id="a_node31"><a xlink:href="/guide/types/comb/" xlink:title="Combinatorial\nOptimization" target="_parent">
<polygon fill="#ffcad5" stroke="#f90031" stroke-width="2" points="1119.6369,-477.8019 1028.8779,-477.8019 1028.8779,-436.5981 1125.6369,-436.5981 1125.6369,-471.8019 1119.6369,-477.8019"/>
<polyline fill="none" stroke="#f90031" stroke-width="2" points="1119.6369,-477.8019 1119.6369,-471.8019 "/>
<polyline fill="none" stroke="#f90031" stroke-width="2" points="1125.6369,-471.8019 1119.6369,-471.8019 "/>
<text text-anchor="middle" x="1077.2574" y="-461.4" font-family="Times,serif" font-size="14.00" fill="#000000">Combinatorial</text>
<text text-anchor="middle" x="1077.2574" y="-444.6" font-family="Times,serif" font-size="14.00" fill="#000000">Optimization</text>
</a>
</g>
</g>
<!-- Discrete&#45;&gt;Combinatorial -->
<g id="edge36" class="edge">
<title>Discrete-&gt;Combinatorial</title>
<path fill="none" stroke="#000000" stroke-width="2" d="M1019.6549,-522.3818C1030.4837,-510.1281 1044.2373,-494.5649 1055.5893,-481.7192"/>
<polygon fill="#000000" stroke="#000000" stroke-width="2" points="1057.0297,-482.732 1059.0293,-477.8265 1054.407,-480.4143 1057.0297,-482.732"/>
</g>
<!-- Integer -->
<g id="node32" class="node">
<title>Integer</title>
<g id="a_node32"><a xlink:href="/guide/types/integer/" xlink:title="Integer\nProgramming" target="_parent">
<polygon fill="#ffcad5" stroke="#f90031" stroke-width="2" points="1117.7476,-366.6019 1030.7672,-366.6019 1030.7672,-325.3981 1123.7476,-325.3981 1123.7476,-360.6019 1117.7476,-366.6019"/>
<polyline fill="none" stroke="#f90031" stroke-width="2" points="1117.7476,-366.6019 1117.7476,-360.6019 "/>
<polyline fill="none" stroke="#f90031" stroke-width="2" points="1123.7476,-360.6019 1117.7476,-360.6019 "/>
<text text-anchor="middle" x="1077.2574" y="-350.2" font-family="Times,serif" font-size="14.00" fill="#000000">Integer</text>
<text text-anchor="middle" x="1077.2574" y="-333.4" font-family="Times,serif" font-size="14.00" fill="#000000">Programming</text>
</a>
</g>
</g>
<!-- Discrete&#45;&gt;Integer -->
<g id="edge37" class="edge">
<title>Discrete-&gt;Integer</title>
<path fill="none" stroke="#000000" stroke-width="2" d="M1046.1769,-536.9237C1076.6563,-530.072 1114.8193,-515.8379 1134.2574,-486.4 1158.8125,-449.2126 1125.9145,-399.7656 1100.8451,-370.5655"/>
<polygon fill="#000000" stroke="#000000" stroke-width="2" points="1102.1281,-369.3741 1097.5217,-366.7579 1099.4912,-371.6756 1102.1281,-369.3741"/>
</g>
<!-- MixedIntegerNon -->
<g id="node33" class="node">
<title>MixedIntegerNon</title>
<g id="a_node33"><a xlink:href="/guide/types/minlp/" xlink:title="Mixed-\nInteger\nNonlinear\nProgramming" target="_parent">
<polygon fill="#ffcad5" stroke="#f90031" stroke-width="2" points="1077.7476,-264.1003 990.7672,-264.1003 990.7672,-188.6997 1083.7476,-188.6997 1083.7476,-258.1003 1077.7476,-264.1003"/>
<polyline fill="none" stroke="#f90031" stroke-width="2" points="1077.7476,-264.1003 1077.7476,-258.1003 "/>
<polyline fill="none" stroke="#f90031" stroke-width="2" points="1083.7476,-258.1003 1077.7476,-258.1003 "/>
<text text-anchor="middle" x="1037.2574" y="-247.4" font-family="Times,serif" font-size="14.00" fill="#000000">Mixed-</text>
<text text-anchor="middle" x="1037.2574" y="-230.6" font-family="Times,serif" font-size="14.00" fill="#000000">Integer</text>
<text text-anchor="middle" x="1037.2574" y="-213.8" font-family="Times,serif" font-size="14.00" fill="#000000">Nonlinear</text>
<text text-anchor="middle" x="1037.2574" y="-197" font-family="Times,serif" font-size="14.00" fill="#000000">Programming</text>
</a>
</g>
</g>
<!-- Discrete&#45;&gt;MixedIntegerNon -->
<g id="edge39" class="edge">
<title>Discrete-&gt;MixedIntegerNon</title>
<path fill="none" stroke="#000000" stroke-width="2" d="M1002.2519,-522.2868C1004.4372,-480.0861 1010.4317,-381.7892 1022.2574,-300 1023.7167,-289.9069 1025.6843,-279.1121 1027.7133,-268.9861"/>
<polygon fill="#000000" stroke="#000000" stroke-width="2" points="1029.4304,-269.3234 1028.7123,-264.0749 1026.0007,-268.6257 1029.4304,-269.3234"/>
</g>
<!-- DiscreteNetwork -->
<g id="node34" class="node">
<title>DiscreteNetwork</title>
<g id="a_node34"><a xlink:href="/guide/types/network/" xlink:title="Network\nOptimization" target="_parent">
<polygon fill="#ffcad5" stroke="#f90031" stroke-width="2" points="1039.1369,-144.2019 955.3779,-144.2019 955.3779,-102.9981 1045.1369,-102.9981 1045.1369,-138.2019 1039.1369,-144.2019"/>
<polyline fill="none" stroke="#f90031" stroke-width="2" points="1039.1369,-144.2019 1039.1369,-138.2019 "/>
<polyline fill="none" stroke="#f90031" stroke-width="2" points="1045.1369,-138.2019 1039.1369,-138.2019 "/>
<text text-anchor="middle" x="1000.2574" y="-127.8" font-family="Times,serif" font-size="14.00" fill="#000000">Network</text>
<text text-anchor="middle" x="1000.2574" y="-111" font-family="Times,serif" font-size="14.00" fill="#000000">Optimization</text>
</a>
</g>
</g>
<!-- Discrete&#45;&gt;DiscreteNetwork -->
<g id="edge41" class="edge">
<title>Discrete-&gt;DiscreteNetwork</title>
<path fill="none" stroke="#000000" stroke-width="2" d="M997.4157,-522.3175C987.9027,-467.4145 965.2139,-314.5798 982.2574,-188.8 984.051,-175.5634 987.8045,-161.2171 991.4221,-149.3606"/>
<polygon fill="#000000" stroke="#000000" stroke-width="2" points="993.1379,-149.7365 992.958,-144.4421 989.7971,-148.6932 993.1379,-149.7365"/>
</g>
<!-- Combinatorial&#45;&gt;Integer -->
<!-- Integer&#45;&gt;MixedIntegerNon -->
<!-- MixedIntegerNon&#45;&gt;DiscreteNetwork -->
</g>
</svg>